<svg id="Layer_1" data-name="Layer 1" xmlns="http://www.w3.org/2000/svg" viewBox="0 0 512 512"><path d="M505.28,325.87,377.53,481.22,337.6,447.94a573.92,573.92,0,0,1-49.82-46.81L176.45,283.29,73.55,174.51a14.57,14.57,0,0,1-1.76-17.72c13.16-21.18,47.82-70.1,92-79.31C163.83,77.48,489.51,299.06,505.28,325.87Z" style="fill:#fff"/><path d="M70.81,130.84,6.72,73.94,51.19,30.78l62.13,53.63s31-20.28,50.51-6.93c0,0-83.09,36.31-87.07,100.42C76.76,177.9,61,175.31,70.81,130.84Z" style="fill:#4fc0da"/><polygon points="363.79 269.48 298.39 351.23 337.63 385.89 410.87 306.1 363.79 269.48" style="fill:#4fc0da"/><polygon points="459.92 307.41 350.71 433.63 375.56 457.17 484.12 327.68 459.92 307.41" style="fill:#4fc0da"/><polygon points="339.61 426.34 85.01 165.76 85.55 165.24 339.57 425.22 446.29 298.32 151.03 88.64 151.47 88.03 447.39 298.19 447.13 298.5 339.61 426.34" style="fill:#787676"/></svg>