<svg id="Layer_1" data-name="Layer 1" xmlns="http://www.w3.org/2000/svg" viewBox="0 0 512 512"><path d="M295,225.77l-238.61,116a144.07,144.07,0,0,0-35.95,24.72C7.6,378.62-4.48,394.54,1.64,407.78c11.64,25.23,74.71,0,74.71,0L342.2,293.29s14.55-28.14,3.88-42.69c-6.67-9.1-14.86-18.42-24.32-23.94A28.47,28.47,0,0,0,295,225.77Z" style="fill:#fff"/><path d="M464.17,353.83a29.76,29.76,0,0,1-16.53-5c-10.38-6.83-18.34-20.57-22.42-38.69a135.31,135.31,0,0,1-.17-55.52c1.1-5.39,2.26-11.05,3.38-16.89-18.26-2.23-35.29,1.78-47.63,6.26a131.4,131.4,0,0,0-30.29,15.55l-4.79-6.46a138.14,138.14,0,0,1,32.34-16.65,120.38,120.38,0,0,1,33.35-7.21,96.33,96.33,0,0,1,18.5.57c3.67-20.56,6.43-42.8,4.54-63.17-3.06-32.9-17.6-55.19-44.46-68.13l3.49-7.24c15.68,7.56,27.79,18.3,36,31.94,7.18,12,11.43,25.92,13,42.69,2,21.3-.86,44.22-4.63,65.29a88.19,88.19,0,0,1,12.41,3.71,114.75,114.75,0,0,1,41.61,27c11.38,11.82,18.23,24.86,19.81,37.72a42.8,42.8,0,0,1-3.85,24.1c-3.81,7.94-10.15,15-18.83,21.1C479.4,351.46,471.11,353.83,464.17,353.83ZM436.36,239.06c-1.14,5.93-2.32,11.67-3.44,17.14a127,127,0,0,0,.14,52.15c3.62,16.07,10.36,28,19,33.73,9.13,6,20,4.7,32.31-3.89,14.42-10.06,21.1-23.08,19.31-37.63-1.37-11.12-7.47-22.57-17.63-33.12S462.19,248,447.36,242.36A79.5,79.5,0,0,0,436.36,239.06Z" style="fill:#fff"/><path d="M322.37,255.75,83.56,371.84a143.88,143.88,0,0,0-35.95,24.72c-12.85,12.14-24.92,28.05-18.81,41.3,11.65,25.22,74.71,0,74.71,0L359.14,327.77A27.11,27.11,0,0,0,374.32,311c2.92-9.39,5-22-1.07-30.28-6.72-9.15-15-18.54-24.52-24.05A28.15,28.15,0,0,0,322.37,255.75Z" style="fill:#4fc0da"/><circle cx="362.45" cy="88.33" r="31.65" style="fill:#4fc0da"/></svg>