<svg id="Layer_1" data-name="Layer 1" xmlns="http://www.w3.org/2000/svg" viewBox="0 0 512 512"><path d="M140.43,253.1a43.3,43.3,0,0,1,8.49-19.27C179.13,194.19,265.71,48.31,313.15,17.54c57-36.94,125,17.1,142.06,50s-3.95,73.66-23.68,113.12c-17.43,34.1-86.52,146.1-117,190.47Z" style="fill:#fff"/><path d="M227.65,216.17s141.09,71,114.61,112.89S238.17,484.5,209.23,501.6s-72,12.8-98.65,0-55.25-46.91-55.25-46.91S27.59,427.91,111.9,292.46c0,0,47.86-78.12,55.78-84.72S206.24,204.55,227.65,216.17Z" style="fill:#4fc0da"/></svg>