<svg id="Layer_1" data-name="Layer 1" xmlns="http://www.w3.org/2000/svg" viewBox="0 0 512 512"><path d="M163.18,382.44l-110,122.48a3.84,3.84,0,0,1-4.85.82C30,494.23,157.3,353,144.81,364.64l-4.6-9.48,18.38-24.4-9.19-13.21L317.88,87a49.27,49.27,0,0,1,56.35-17.5l1.42.52C321.75,14.28,355.76-.4,418.14,44.8c51.6,32.85,51.93,86.7-16.08,41.34,0,0,18.95,39.62-1.15,62.59S214.29,375,214.29,375l-14.93-10.91L172.94,392.2Z" style="fill:#fff"/><path d="M286.64,157.34l46.51,42.71L220.87,336a19.53,19.53,0,0,1-24.81,4.48,73.31,73.31,0,0,1-14.13-11.18,20,20,0,0,1-2.52-25.59c1.08-1.58,2.36-3.28,3.87-5.1C197.06,282,286.64,157.34,286.64,157.34Z" style="fill:#4fc0da"/></svg>