<svg xmlns="http://www.w3.org/2000/svg" viewBox="0 0 3824.64 616.04"><defs><style>.cls-1{fill:#f24c4e;}</style></defs><g id="Layer_2" data-name="Layer 2"><g id="Layer_1-2" data-name="Layer 1"><path class="cls-1" d="M1127.4,309.7v-.77c0-76.62,57.75-139.37,140.52-139.37,50.82,0,81.23,16.94,106.26,41.58l-37.73,43.5c-20.79-18.86-42-30.41-68.92-30.41-45.42,0-78.15,37.73-78.15,83.93v.77c0,46.2,32,84.7,78.15,84.7,30.8,0,49.67-12.32,70.84-31.57l37.73,38.11c-27.72,29.65-58.52,48.13-110.49,48.13C1186.3,448.3,1127.4,387.08,1127.4,309.7Z"/><path class="cls-1" d="M1450.91,174.18h59.29v215.6h134.36v53.9H1450.91Z"/><path class="cls-1" d="M1802.79,172.26h54.67L1973,443.68h-62l-24.64-60.45h-114l-24.64,60.45h-60.45Zm62.37,158.61-35.8-87.39-35.81,87.39Z"/><path class="cls-1" d="M2041.49,174.18h123.2c34.26,0,60.83,9.63,78.54,27.33,15,15,23.1,36.19,23.1,61.6v.77c0,43.51-23.49,70.84-57.75,83.55l65.83,96.25h-69.3l-57.75-86.24h-46.58v86.24h-59.29Zm119.35,130.9c28.87,0,45.43-15.4,45.43-38.12v-.77c0-25.41-17.71-38.5-46.58-38.5h-58.91v77.39Z"/><path class="cls-1" d="M2352.61,174.18h59.29V292l109.33-117.81h71.61L2483.12,288.52l114.73,155.16h-71.23L2443.08,329l-31.18,32.34v82.39h-59.29Z"/><path class="cls-1" d="M2643.66,404.41l35-42c24.25,20,49.66,32.73,80.46,32.73,24.26,0,38.89-9.63,38.89-25.41V369c0-15-9.24-22.72-54.29-34.27-54.28-13.86-89.32-28.87-89.32-82.39v-.77c0-48.89,39.27-81.23,94.33-81.23,39.27,0,72.76,12.32,100.1,34.26l-30.8,44.66c-23.87-16.55-47.36-26.56-70.07-26.56s-34.65,10.39-34.65,23.48v.77c0,17.71,11.55,23.49,58.13,35.42,54.67,14.25,85.47,33.88,85.47,80.85V364c0,53.52-40.81,83.55-98.94,83.55C2717.2,447.53,2676,433.28,2643.66,404.41Z"/><path class="cls-1" d="M2923.37,309.7v-.77c0-76.62,60.44-139.37,143.6-139.37s142.83,62,142.83,138.6v.77c0,76.61-60.44,139.37-143.6,139.37S2923.37,386.31,2923.37,309.7Zm224.45,0v-.77c0-46.2-33.88-84.7-81.62-84.7s-80.85,37.73-80.85,83.93v.77c0,46.2,33.88,84.7,81.62,84.7S3147.82,355.9,3147.82,309.7Z"/><path class="cls-1" d="M3293.35,174.18H3348L3474.3,340.11V174.18h58.51v269.5h-50.43L3351.87,272.35V443.68h-58.52Z"/><path class="cls-1" d="M3611.36,404.41l35-42c24.26,20,49.66,32.73,80.46,32.73,24.26,0,38.89-9.63,38.89-25.41V369c0-15-9.24-22.72-54.29-34.27-54.28-13.86-89.31-28.87-89.31-82.39v-.77c0-48.89,39.26-81.23,94.32-81.23,39.27,0,72.76,12.32,100.1,34.26l-30.8,44.66c-23.87-16.55-47.36-26.56-70.07-26.56S3681,233.08,3681,246.17v.77c0,17.71,11.55,23.49,58.13,35.42,54.67,14.25,85.47,33.88,85.47,80.85V364c0,53.52-40.81,83.55-98.94,83.55C3684.89,447.53,3643.69,433.28,3611.36,404.41Z"/><path class="cls-1" d="M395.54,333.31v-.51c0-51,38.42-92.74,93.5-92.74,33.82,0,54.06,11.27,70.71,27.67l-25.11,28.95c-13.83-12.56-27.92-20.24-45.85-20.24-30.23,0-52,25.11-52,55.85v.51c0,30.74,21.27,56.36,52,56.36,20.49,0,33-8.2,47.13-21L561,393.52c-18.44,19.72-38.94,32-73.52,32C434.73,425.54,395.54,384.81,395.54,333.31Z"/><path class="cls-1" d="M479.36,573.51c-106.42,0-138.8-30.57-200.18-49.17l-42.22,33C330.4,571.68,351.15,616,479.36,616s149-44.36,242.41-58.72l-42.22-33C618.17,542.94,585.79,573.51,479.36,573.51Z"/><path class="cls-1" d="M173.47,510.36c-90,0-127,21.88-173.47,39.88v42.53c46.42-18,83.45-39.88,173.47-39.88h.08l50.93-39.79A439.41,439.41,0,0,0,173.47,510.36Z"/><path class="cls-1" d="M785.26,552.89c90,0,127,21.88,173.47,39.88V550.24c-46.42-18-83.46-39.88-173.47-39.88a439.28,439.28,0,0,0-51,2.75l50.93,39.79Z"/><path class="cls-1" d="M352.29,467.22l-35.92,28.06c41.89,17,79.84,35.7,163,35.7s121.1-18.66,163-35.7l-35.93-28.06c-31.21,11.67-67.56,21.23-127.07,21.23S383.51,478.89,352.29,467.22Z"/><path class="cls-1" d="M785.26,467.83c90,0,127,21.87,173.47,39.87V465.17c-46.42-18-83.46-39.87-173.47-39.87-63.44,0-100.56,10.87-133.2,23.59l38.24,29.87C715,472.26,744.78,467.83,785.26,467.83Z"/><path class="cls-1" d="M173.47,425.3c-90,0-127,21.88-173.47,39.88v42.53c46.42-18,83.45-39.88,173.47-39.88,40.48,0,70.24,4.43,95,10.93l38.24-29.87C274,436.17,236.91,425.3,173.47,425.3Z"/><path class="cls-1" d="M173.47,340.24c-90,0-127,21.88-173.47,39.88v42.53c46.42-18,83.45-39.88,173.47-39.88,78.93,0,117.13,16.82,156.63,33.1V373.34C290.6,357.06,252.4,340.24,173.47,340.24Z"/><path class="cls-1" d="M785.26,382.77c90,0,127,21.87,173.47,39.87V380.11c-46.42-18-83.46-39.87-173.47-39.87-78.93,0-117.13,16.82-156.63,33.1v42.53C668.13,399.59,706.33,382.77,785.26,382.77Z"/><path class="cls-1" d="M785.26,297.71c90,0,127,21.87,173.47,39.87V295.05c-46.42-18-83.46-39.87-173.47-39.87-78.93,0-117.13,16.82-156.63,33.1v42.53C668.13,314.53,706.33,297.71,785.26,297.71Z"/><path class="cls-1" d="M173.47,255.18c-90,0-127,21.87-173.47,39.87v42.53c46.42-18,83.45-39.87,173.47-39.87,78.93,0,117.13,16.82,156.63,33.1V288.28C290.6,272,252.4,255.18,173.47,255.18Z"/><path class="cls-1" d="M785.26,212.65c90,0,127,21.87,173.47,39.87V210c-46.42-18-83.46-39.87-173.47-39.87-78.93,0-117.13,16.82-156.63,33.1v42.53C668.13,229.47,706.33,212.65,785.26,212.65Z"/><path class="cls-1" d="M173.47,170.12C83.45,170.12,46.42,192,0,210v42.53c46.42-18,83.45-39.87,173.47-39.87,78.93,0,117.13,16.82,156.63,33.1V203.22C290.6,186.94,252.4,170.12,173.47,170.12Z"/><path class="cls-1" d="M173.47,85.06c-90,0-127,21.87-173.47,39.87v42.53c46.42-18,83.45-39.87,173.47-39.87,57.79,0,93.74,9,124.36,20.24L251,92C229.8,87.72,204.86,85.06,173.47,85.06Z"/><path class="cls-1" d="M479.36,148.21c-75.69,0-113.93-15.47-151.78-31.09l51.35,61.19c25.8,7.32,56.92,12.43,100.43,12.43S554,185.63,579.8,178.31l51.35-61.19C593.29,132.74,555.06,148.21,479.36,148.21Z"/><path class="cls-1" d="M785.26,127.59c90,0,127,21.87,173.47,39.87V124.93c-46.42-18-83.46-39.87-173.47-39.87-31.39,0-56.33,2.66-77.48,6.89L660.9,147.83C691.52,136.61,727.47,127.59,785.26,127.59Z"/><path class="cls-1" d="M785.26,42.53c90,0,127,21.87,173.47,39.87V39.87C912.31,21.87,875.27,0,785.26,0h-.32L748.07,43.93C759.42,43,771.73,42.53,785.26,42.53Z"/><path class="cls-1" d="M173.47,0C83.45,0,46.42,21.87,0,39.87V82.4c46.42-18,83.45-39.87,173.47-39.87,13.53,0,25.84.5,37.18,1.4L173.79,0Z"/><path class="cls-1" d="M479.36,105.68c108.3,0,139.93-31.66,203.46-50.14L726.25,3.77C629,17.37,609.59,63.15,479.36,63.15S329.77,17.37,232.48,3.77l43.43,51.77C339.44,74,371.06,105.68,479.36,105.68Z"/></g></g></svg>