<svg xmlns="http://www.w3.org/2000/svg" width="48" height="48" viewBox="0 0 48 48"><defs><style>.a{fill:#003972;fill-rule:evenodd;}.b{fill:#60b5cc;}.c{fill:none;}</style></defs><path class="a" d="M3.5,2A3.5,3.5,0,0,0,0,5.5v19A3.5,3.5,0,0,0,3.5,28H6v3.09a2.913,2.913,0,0,0,4.97,2.06L16.12,28H28.5A3.5,3.5,0,0,0,32,24.5V5.5A3.5,3.5,0,0,0,28.5,2ZM3,5.5A.5.5,0,0,1,3.5,5h25a.5.5,0,0,1,.5.5v19a.5.5,0,0,1-.5.5h-13a1.5,1.5,0,0,0-1.06.44L9,30.88V26.5A1.5,1.5,0,0,0,7.5,25h-4a.5.5,0,0,1-.5-.5Z"/><path class="b" d="M45,17.5a.5.5,0,0,0-.5-.5h-7a1.5,1.5,0,0,1,0-3h7A3.5,3.5,0,0,1,48,17.5v19A3.5,3.5,0,0,1,44.5,40H42v3.09a2.913,2.913,0,0,1-4.97,2.06L31.88,40H21.5A3.5,3.5,0,0,1,18,36.5V33.57a1.5,1.5,0,0,1,3,0V36.5a.5.5,0,0,0,.5.5h11a1.5,1.5,0,0,1,1.06.44L39,42.88V38.5A1.5,1.5,0,0,1,40.5,37h4a.5.5,0,0,0,.5-.5Z"/><path class="c" d="M0,0H48V48H0Z"/></svg>