<svg xmlns="http://www.w3.org/2000/svg" width="48" height="48" viewBox="0 0 48 48"><defs><style>.a{fill:#60b5cc;}.b{fill:#003972;}.c{fill:rgba(0,0,0,0);}.d{fill:none;}</style></defs><path class="a" d="M23.87,23.07a6.47,6.47,0,1,0-6.54-6.54A6.555,6.555,0,0,0,23.87,23.07ZM23.73,12.8h0a3.867,3.867,0,0,1,3.87,3.87,3.8,3.8,0,0,1-7.6,0A3.84,3.84,0,0,1,23.73,12.8Z"/><path class="b" d="M43.6,22.27a13.2,13.2,0,0,0-9.33-3.34H33.2a9.011,9.011,0,0,1-1.2,2.8,13.3,13.3,0,0,1,2.27-.13,11.134,11.134,0,0,1,7.06,2.13v9.6H44V22.67Z"/><path class="b" d="M31.2,10.4a3.256,3.256,0,1,1,3.07,4.53,2.355,2.355,0,0,1-.94-.13,9.02,9.02,0,0,1,.14,1.87v.8c.26,0,.53.13.8.13A5.935,5.935,0,0,0,34.4,5.73a5.73,5.73,0,0,0-5.07,2.94A5.625,5.625,0,0,1,31.2,10.4Z"/><path class="b" d="M16,21.87a9.115,9.115,0,0,1-1.2-2.8H13.73a13.651,13.651,0,0,0-9.33,3.2l-.4.4V33.33H6.67v-9.6a11.374,11.374,0,0,1,7.06-2.13A11.3,11.3,0,0,1,16,21.87Z"/><path class="b" d="M13.73,17.47a1.6,1.6,0,0,0,.8-.14v-.8a7.775,7.775,0,0,1,.14-1.86,2.355,2.355,0,0,1-.94.13,3.2,3.2,0,0,1,0-6.4,3.363,3.363,0,0,1,3.07,2,13.148,13.148,0,0,1,2-1.87,5.923,5.923,0,1,0-5.07,8.94Z"/><path class="a" d="M34.8,30.27l-.27-.4a13.442,13.442,0,0,0-10.4-4.54A13.728,13.728,0,0,0,13.6,29.87l-.27.4V40.4a2.255,2.255,0,0,0,2.27,2.27H32.67a2.334,2.334,0,0,0,2.26-2.27h0V30.27ZM32.13,40H16V31.2A11.391,11.391,0,0,1,24.13,28a10.764,10.764,0,0,1,8,3.2Z"/><path class="c" d="M0,0H48V48H0Z"/><path class="d" d="M0,0H48V48H0Z"/></svg>