<svg xmlns="http://www.w3.org/2000/svg" xmlns:xlink="http://www.w3.org/1999/xlink" width="139.403" height="139.403" viewBox="0 0 139.403 139.403">
  <defs>
    <filter id="Subtraction_3" x="0" y="0" width="139.403" height="139.403" filterUnits="userSpaceOnUse">
      <feOffset dy="3" input="SourceAlpha"/>
      <feGaussianBlur stdDeviation="3" result="blur"/>
      <feFlood flood-opacity="0.161"/>
      <feComposite operator="in" in2="blur"/>
      <feComposite in="SourceGraphic"/>
    </filter>
  </defs>
  <g id="Component_4_1" data-name="Component 4 – 1" transform="translate(9 6)">
    <g id="Group_3472" data-name="Group 3472" transform="translate(0 0)">
      <g id="Group_3472-2" data-name="Group 3472" transform="translate(0 0)">
        <g id="Union_8" data-name="Union 8" transform="translate(4252.295 927.032)" fill="#dfebea">
          <path d="M -4236.84814453125 -822.6019897460938 L -4251.30615234375 -831.9901733398438 L -4248.123046875 -833.6566772460938 L -4247.85498046875 -833.7970581054688 L -4247.85498046875 -834.0996704101562 L -4247.85498046875 -922.592041015625 L -4132.5625 -922.592041015625 L -4132.5625 -832.436279296875 L -4235.755859375 -832.436279296875 L -4236.22509765625 -832.436279296875 L -4236.2548828125 -831.9678955078125 L -4236.84814453125 -822.6019897460938 Z" stroke="none"/>
          <path d="M -4237.29296875 -823.487060546875 L -4236.6943359375 -832.936279296875 L -4133.0625 -832.936279296875 L -4133.0625 -922.092041015625 L -4247.35498046875 -922.092041015625 L -4247.35498046875 -833.4944458007812 L -4250.31689453125 -831.94384765625 L -4237.29296875 -823.487060546875 M -4236.4033203125 -821.7169189453125 L -4252.2958984375 -832.0365600585938 L -4248.35498046875 -834.0996704101562 L -4248.35498046875 -923.092041015625 L -4132.0625 -923.092041015625 L -4132.0625 -831.936279296875 L -4235.755859375 -831.936279296875 L -4236.4033203125 -821.7169189453125 Z" stroke="none" fill="#707070"/>
        </g>
        <g transform="matrix(1, 0, 0, 1, -9, -6)" filter="url(#Subtraction_3)">
          <path id="Subtraction_3-2" data-name="Subtraction 3" d="M0,121.4V9.105a8.862,8.862,0,0,1,2.731-6.3A8.664,8.664,0,0,1,9.105,0H112.3a8.749,8.749,0,0,1,6.3,2.807,8.749,8.749,0,0,1,2.807,6.3V88.017a9.632,9.632,0,0,1-9.105,9.105H24.28L0,121.4ZM9.105,9.105V99.4L20.487,88.017H112.3V9.105Z" transform="translate(9 6)" fill="#fff"/>
        </g>
      </g>
      <path id="support_agent_FILL0_wght400_GRAD0_opsz48" d="M31.825,61.65V57.012H58.1v-23.5A20.128,20.128,0,0,0,56.172,24.9a24.784,24.784,0,0,0-5.179-7.3,25.792,25.792,0,0,0-7.42-5.063,20.733,20.733,0,0,0-17.313,0,25.792,25.792,0,0,0-7.42,5.063,24.784,24.784,0,0,0-5.179,7.3,20.128,20.128,0,0,0-1.932,8.618V52.375H10.183a5.954,5.954,0,0,1-4.367-1.816A5.954,5.954,0,0,1,4,46.191V40.008a5.757,5.757,0,0,1,.85-3.13,6.787,6.787,0,0,1,2.241-2.2l.232-4.1a28.042,28.042,0,0,1,3.208-10.2,27.157,27.157,0,0,1,6.261-7.729,28.133,28.133,0,0,1,8.425-4.908,28.137,28.137,0,0,1,19.477,0,27.215,27.215,0,0,1,8.386,4.947A28.229,28.229,0,0,1,59.3,20.415,27.606,27.606,0,0,1,62.509,30.5l.232,4.019a5.624,5.624,0,0,1,3.092,5.024v7.111a5.426,5.426,0,0,1-.85,3.014,5.618,5.618,0,0,1-2.241,2.01v5.333A4.618,4.618,0,0,1,58.1,61.65ZM25.642,39.235a2.225,2.225,0,0,1-1.623-.7,2.313,2.313,0,0,1-.7-1.7,2.1,2.1,0,0,1,.7-1.584,2.384,2.384,0,0,1,1.7-.657,2.159,2.159,0,0,1,1.584.657,2.252,2.252,0,0,1,.657,1.662A2.29,2.29,0,0,1,27.3,38.54,2.188,2.188,0,0,1,25.642,39.235Zm18.55,0a2.225,2.225,0,0,1-1.623-.7,2.313,2.313,0,0,1-.7-1.7,2.1,2.1,0,0,1,.7-1.584,2.384,2.384,0,0,1,1.7-.657,2.159,2.159,0,0,1,1.584.657,2.252,2.252,0,0,1,.657,1.662,2.29,2.29,0,0,1-.657,1.623A2.188,2.188,0,0,1,44.191,39.235ZM16.444,35.216a17.728,17.728,0,0,1,1.275-8.27,19.131,19.131,0,0,1,4.251-6.3,19.21,19.21,0,0,1,13.1-5.372A16.737,16.737,0,0,1,46.9,19.719,18.814,18.814,0,0,1,52.771,30.81a22.352,22.352,0,0,1-12.792-3.9,25.722,25.722,0,0,1-8.541-9.932,24.684,24.684,0,0,1-5.217,11.091A24.052,24.052,0,0,1,16.444,35.216Z" transform="translate(25.785 13.908)" fill="#719398"/>
    </g>
  </g>
</svg>
